<svg id="visual" viewBox="0 0 960 540" width="960" height="540" xmlns="http://www.w3.org/2000/svg" xmlns:xlink="http://www.w3.org/1999/xlink" version="1.1"><rect x="0" y="0" width="960" height="540" fill="#1E1E1E"></rect><path d="M0 145L14.5 144.5C29 144 58 143 87.2 140.3C116.3 137.7 145.7 133.3 174.8 131C204 128.7 233 128.3 262 131.7C291 135 320 142 349 143C378 144 407 139 436.2 138C465.3 137 494.7 140 523.8 140C553 140 582 137 611 138.3C640 139.7 669 145.3 698 146.2C727 147 756 143 785.2 140.8C814.3 138.7 843.7 138.3 872.8 136.8C902 135.3 931 132.7 945.5 131.3L960 130L960 0L945.5 0C931 0 902 0 872.8 0C843.7 0 814.3 0 785.2 0C756 0 727 0 698 0C669 0 640 0 611 0C582 0 553 0 523.8 0C494.7 0 465.3 0 436.2 0C407 0 378 0 349 0C320 0 291 0 262 0C233 0 204 0 174.8 0C145.7 0 116.3 0 87.2 0C58 0 29 0 14.5 0L0 0Z" fill="#c21858"></path><path d="M0 95L14.5 95.2C29 95.3 58 95.7 87.2 97.3C116.3 99 145.7 102 174.8 101.7C204 101.3 233 97.7 262 98C291 98.3 320 102.7 349 102.2C378 101.7 407 96.3 436.2 95.5C465.3 94.7 494.7 98.3 523.8 97.8C553 97.3 582 92.7 611 89.8C640 87 669 86 698 88.8C727 91.7 756 98.3 785.2 101C814.3 103.7 843.7 102.3 872.8 99.5C902 96.7 931 92.3 945.5 90.2L960 88L960 0L945.5 0C931 0 902 0 872.8 0C843.7 0 814.3 0 785.2 0C756 0 727 0 698 0C669 0 640 0 611 0C582 0 553 0 523.8 0C494.7 0 465.3 0 436.2 0C407 0 378 0 349 0C320 0 291 0 262 0C233 0 204 0 174.8 0C145.7 0 116.3 0 87.2 0C58 0 29 0 14.5 0L0 0Z" fill="#d51b5e"></path><path d="M0 53L14.5 54.2C29 55.3 58 57.7 87.2 56.7C116.3 55.7 145.7 51.3 174.8 51C204 50.7 233 54.3 262 56.7C291 59 320 60 349 60.7C378 61.3 407 61.7 436.2 58.8C465.3 56 494.7 50 523.8 48.5C553 47 582 50 611 51.5C640 53 669 53 698 51.7C727 50.3 756 47.7 785.2 48.2C814.3 48.7 843.7 52.3 872.8 52.2C902 52 931 48 945.5 46L960 44L960 0L945.5 0C931 0 902 0 872.8 0C843.7 0 814.3 0 785.2 0C756 0 727 0 698 0C669 0 640 0 611 0C582 0 553 0 523.8 0C494.7 0 465.3 0 436.2 0C407 0 378 0 349 0C320 0 291 0 262 0C233 0 204 0 174.8 0C145.7 0 116.3 0 87.2 0C58 0 29 0 14.5 0L0 0Z" fill="#e91e63"></path></svg>