<svg id="visual" viewBox="0 0 960 450" width="960" height="450" xmlns="http://www.w3.org/2000/svg" xmlns:xlink="http://www.w3.org/1999/xlink" version="1.1"><rect x="0" y="0" width="960" height="450" fill="#1E1E1E"></rect><path d="M0 79L22.8 78.8C45.7 78.7 91.3 78.3 137 81.2C182.7 84 228.3 90 274 94.7C319.7 99.3 365.3 102.7 411.2 101C457 99.3 503 92.7 548.8 92.3C594.7 92 640.3 98 686 101.5C731.7 105 777.3 106 823 104.3C868.7 102.7 914.3 98.3 937.2 96.2L960 94L960 0L937.2 0C914.3 0 868.7 0 823 0C777.3 0 731.7 0 686 0C640.3 0 594.7 0 548.8 0C503 0 457 0 411.2 0C365.3 0 319.7 0 274 0C228.3 0 182.7 0 137 0C91.3 0 45.7 0 22.8 0L0 0Z" fill="#272ab0"></path><path d="M0 76L22.8 73.5C45.7 71 91.3 66 137 66.5C182.7 67 228.3 73 274 74.8C319.7 76.7 365.3 74.3 411.2 73C457 71.7 503 71.3 548.8 70.7C594.7 70 640.3 69 686 68.7C731.7 68.3 777.3 68.7 823 71.8C868.7 75 914.3 81 937.2 84L960 87L960 0L937.2 0C914.3 0 868.7 0 823 0C777.3 0 731.7 0 686 0C640.3 0 594.7 0 548.8 0C503 0 457 0 411.2 0C365.3 0 319.7 0 274 0C228.3 0 182.7 0 137 0C91.3 0 45.7 0 22.8 0L0 0Z" fill="#0072ca"></path><path d="M0 63L22.8 61C45.7 59 91.3 55 137 52.2C182.7 49.3 228.3 47.7 274 50C319.7 52.3 365.3 58.7 411.2 61C457 63.3 503 61.7 548.8 59.5C594.7 57.3 640.3 54.7 686 55.5C731.7 56.3 777.3 60.7 823 60.3C868.7 60 914.3 55 937.2 52.5L960 50L960 0L937.2 0C914.3 0 868.7 0 823 0C777.3 0 731.7 0 686 0C640.3 0 594.7 0 548.8 0C503 0 457 0 411.2 0C365.3 0 319.7 0 274 0C228.3 0 182.7 0 137 0C91.3 0 45.7 0 22.8 0L0 0Z" fill="#00a5c7"></path><path d="M0 29L22.8 30.8C45.7 32.7 91.3 36.3 137 36.3C182.7 36.3 228.3 32.7 274 32.3C319.7 32 365.3 35 411.2 35.5C457 36 503 34 548.8 34.5C594.7 35 640.3 38 686 38.5C731.7 39 777.3 37 823 36.5C868.7 36 914.3 37 937.2 37.5L960 38L960 0L937.2 0C914.3 0 868.7 0 823 0C777.3 0 731.7 0 686 0C640.3 0 594.7 0 548.8 0C503 0 457 0 411.2 0C365.3 0 319.7 0 274 0C228.3 0 182.7 0 137 0C91.3 0 45.7 0 22.8 0L0 0Z" fill="#60c689"></path></svg>