<svg id="visual" viewBox="0 0 960 540" width="960" height="540" xmlns="http://www.w3.org/2000/svg" xmlns:xlink="http://www.w3.org/1999/xlink" version="1.1"><rect x="0" y="0" width="960" height="540" fill="#1E1E1E"></rect><path d="M0 412L22.8 411.5C45.7 411 91.3 410 137 403C182.7 396 228.3 383 274 380.5C319.7 378 365.3 386 411.2 396C457 406 503 418 548.8 423.5C594.7 429 640.3 428 686 414.8C731.7 401.7 777.3 376.3 823 376.3C868.7 376.3 914.3 401.7 937.2 414.3L960 427L960 541L937.2 541C914.3 541 868.7 541 823 541C777.3 541 731.7 541 686 541C640.3 541 594.7 541 548.8 541C503 541 457 541 411.2 541C365.3 541 319.7 541 274 541C228.3 541 182.7 541 137 541C91.3 541 45.7 541 22.8 541L0 541Z" fill="#9c2780"></path><path d="M0 416L22.8 418.8C45.7 421.7 91.3 427.3 137 424C182.7 420.7 228.3 408.3 274 411C319.7 413.7 365.3 431.3 411.2 433.7C457 436 503 423 548.8 416.2C594.7 409.3 640.3 408.7 686 410.3C731.7 412 777.3 416 823 412.2C868.7 408.3 914.3 396.7 937.2 390.8L960 385L960 541L937.2 541C914.3 541 868.7 541 823 541C777.3 541 731.7 541 686 541C640.3 541 594.7 541 548.8 541C503 541 457 541 411.2 541C365.3 541 319.7 541 274 541C228.3 541 182.7 541 137 541C91.3 541 45.7 541 22.8 541L0 541Z" fill="#881f8f"></path><path d="M0 454L22.8 457.7C45.7 461.3 91.3 468.7 137 472.3C182.7 476 228.3 476 274 475.5C319.7 475 365.3 474 411.2 467.7C457 461.3 503 449.7 548.8 445.2C594.7 440.7 640.3 443.3 686 448.7C731.7 454 777.3 462 823 461C868.7 460 914.3 450 937.2 445L960 440L960 541L937.2 541C914.3 541 868.7 541 823 541C777.3 541 731.7 541 686 541C640.3 541 594.7 541 548.8 541C503 541 457 541 411.2 541C365.3 541 319.7 541 274 541C228.3 541 182.7 541 137 541C91.3 541 45.7 541 22.8 541L0 541Z" fill="#68219f"></path><path d="M0 483L22.8 486.7C45.7 490.3 91.3 497.7 137 500C182.7 502.3 228.3 499.7 274 494C319.7 488.3 365.3 479.7 411.2 479.8C457 480 503 489 548.8 493C594.7 497 640.3 496 686 492.5C731.7 489 777.3 483 823 483.8C868.7 484.7 914.3 492.3 937.2 496.2L960 500L960 541L937.2 541C914.3 541 868.7 541 823 541C777.3 541 731.7 541 686 541C640.3 541 594.7 541 548.8 541C503 541 457 541 411.2 541C365.3 541 319.7 541 274 541C228.3 541 182.7 541 137 541C91.3 541 45.7 541 22.8 541L0 541Z" fill="#272ab0"></path></svg>