<svg id="visual" viewBox="0 0 960 450" width="960" height="450" xmlns="http://www.w3.org/2000/svg" xmlns:xlink="http://www.w3.org/1999/xlink" version="1.1"><rect x="0" y="0" width="960" height="450" fill="#1E1E1E"></rect><path d="M0 344L22.8 343.5C45.7 343 91.3 342 137 336C182.7 330 228.3 319 274 316.8C319.7 314.7 365.3 321.3 411.2 329.7C457 338 503 348 548.8 352.7C594.7 357.3 640.3 356.7 686 345.7C731.7 334.7 777.3 313.3 823 313.2C868.7 313 914.3 334 937.2 344.5L960 355L960 451L937.2 451C914.3 451 868.7 451 823 451C777.3 451 731.7 451 686 451C640.3 451 594.7 451 548.8 451C503 451 457 451 411.2 451C365.3 451 319.7 451 274 451C228.3 451 182.7 451 137 451C91.3 451 45.7 451 22.8 451L0 451Z" fill="#57acdc"></path><path d="M0 346L22.8 348.5C45.7 351 91.3 356 137 353.3C182.7 350.7 228.3 340.3 274 342.5C319.7 344.7 365.3 359.3 411.2 361.2C457 363 503 352 548.8 346.3C594.7 340.7 640.3 340.3 686 341.8C731.7 343.3 777.3 346.7 823 343.5C868.7 340.3 914.3 330.7 937.2 325.8L960 321L960 451L937.2 451C914.3 451 868.7 451 823 451C777.3 451 731.7 451 686 451C640.3 451 594.7 451 548.8 451C503 451 457 451 411.2 451C365.3 451 319.7 451 274 451C228.3 451 182.7 451 137 451C91.3 451 45.7 451 22.8 451L0 451Z" fill="#7a89d8"></path><path d="M0 378L22.8 381C45.7 384 91.3 390 137 393.2C182.7 396.3 228.3 396.7 274 396.3C319.7 396 365.3 395 411.2 389.7C457 384.3 503 374.7 548.8 371C594.7 367.3 640.3 369.7 686 374C731.7 378.3 777.3 384.7 823 383.7C868.7 382.7 914.3 374.3 937.2 370.2L960 366L960 451L937.2 451C914.3 451 868.7 451 823 451C777.3 451 731.7 451 686 451C640.3 451 594.7 451 548.8 451C503 451 457 451 411.2 451C365.3 451 319.7 451 274 451C228.3 451 182.7 451 137 451C91.3 451 45.7 451 22.8 451L0 451Z" fill="#b057aa"></path><path d="M0 402L22.8 405.2C45.7 408.3 91.3 414.7 137 416.7C182.7 418.7 228.3 416.3 274 411.5C319.7 406.7 365.3 399.3 411.2 399.5C457 399.7 503 407.3 548.8 410.7C594.7 414 640.3 413 686 410.2C731.7 407.3 777.3 402.7 823 403.5C868.7 404.3 914.3 410.7 937.2 413.8L960 417L960 451L937.2 451C914.3 451 868.7 451 823 451C777.3 451 731.7 451 686 451C640.3 451 594.7 451 548.8 451C503 451 457 451 411.2 451C365.3 451 319.7 451 274 451C228.3 451 182.7 451 137 451C91.3 451 45.7 451 22.8 451L0 451Z" fill="#c21858"></path></svg>