<svg id="visual" viewBox="0 0 960 450" width="960" height="450" xmlns="http://www.w3.org/2000/svg" xmlns:xlink="http://www.w3.org/1999/xlink" version="1.1"><rect x="0" y="0" width="960" height="450" fill="#1E1E1E"></rect><path d="M0 160L26.7 158.2C53.3 156.3 106.7 152.7 160 146.5C213.3 140.3 266.7 131.7 320 124.2C373.3 116.7 426.7 110.3 480 116.2C533.3 122 586.7 140 640 149.5C693.3 159 746.7 160 800 162.5C853.3 165 906.7 169 933.3 171L960 173L960 0L933.3 0C906.7 0 853.3 0 800 0C746.7 0 693.3 0 640 0C586.7 0 533.3 0 480 0C426.7 0 373.3 0 320 0C266.7 0 213.3 0 160 0C106.7 0 53.3 0 26.7 0L0 0Z" fill="#c21858"></path><path d="M0 114L26.7 118C53.3 122 106.7 130 160 125C213.3 120 266.7 102 320 94C373.3 86 426.7 88 480 88C533.3 88 586.7 86 640 91.7C693.3 97.3 746.7 110.7 800 110C853.3 109.3 906.7 94.7 933.3 87.3L960 80L960 0L933.3 0C906.7 0 853.3 0 800 0C746.7 0 693.3 0 640 0C586.7 0 533.3 0 480 0C426.7 0 373.3 0 320 0C266.7 0 213.3 0 160 0C106.7 0 53.3 0 26.7 0L0 0Z" fill="#af0076"></path><path d="M0 79L26.7 83.3C53.3 87.7 106.7 96.3 160 93.5C213.3 90.7 266.7 76.3 320 70.7C373.3 65 426.7 68 480 68.5C533.3 69 586.7 67 640 67.5C693.3 68 746.7 71 800 69.8C853.3 68.7 906.7 63.3 933.3 60.7L960 58L960 0L933.3 0C906.7 0 853.3 0 800 0C746.7 0 693.3 0 640 0C586.7 0 533.3 0 480 0C426.7 0 373.3 0 320 0C266.7 0 213.3 0 160 0C106.7 0 53.3 0 26.7 0L0 0Z" fill="#870c94"></path><path d="M0 51L26.7 49.3C53.3 47.7 106.7 44.3 160 41.3C213.3 38.3 266.7 35.7 320 34.7C373.3 33.7 426.7 34.3 480 38.7C533.3 43 586.7 51 640 56C693.3 61 746.7 63 800 57.3C853.3 51.7 906.7 38.3 933.3 31.7L960 25L960 0L933.3 0C906.7 0 853.3 0 800 0C746.7 0 693.3 0 640 0C586.7 0 533.3 0 480 0C426.7 0 373.3 0 320 0C266.7 0 213.3 0 160 0C106.7 0 53.3 0 26.7 0L0 0Z" fill="#272ab0"></path></svg>